<svg xmlns="http://www.w3.org/2000/svg" viewBox="0 0 1600 1000" width="1600" height="1000">
<defs>
  <radialGradient id="g" cx=".6" cy=".5" r=".6">
    <stop offset="0" stop-color="#FF4B16" stop-opacity=".38"/>
    <stop offset=".35" stop-color="#FF4B16" stop-opacity=".08"/>
    <stop offset="1" stop-color="#08090B" stop-opacity="0"/>
  </radialGradient>
  <linearGradient id="bg" x1="0" y1="0" x2="1" y2="1">
    <stop offset="0" stop-color="#0B0C0F"/><stop offset="1" stop-color="#16181C"/>
  </linearGradient>
</defs>
<rect width="1600" height="1000" fill="url(#bg)"/>
<g stroke="#ffffff" stroke-opacity=".035" stroke-width="1"><line x1="0" y1="0" x2="0" y2="1000"/><line x1="66" y1="0" x2="66" y2="1000"/><line x1="132" y1="0" x2="132" y2="1000"/><line x1="198" y1="0" x2="198" y2="1000"/><line x1="264" y1="0" x2="264" y2="1000"/><line x1="330" y1="0" x2="330" y2="1000"/><line x1="396" y1="0" x2="396" y2="1000"/><line x1="462" y1="0" x2="462" y2="1000"/><line x1="528" y1="0" x2="528" y2="1000"/><line x1="594" y1="0" x2="594" y2="1000"/><line x1="660" y1="0" x2="660" y2="1000"/><line x1="726" y1="0" x2="726" y2="1000"/><line x1="792" y1="0" x2="792" y2="1000"/><line x1="858" y1="0" x2="858" y2="1000"/><line x1="924" y1="0" x2="924" y2="1000"/><line x1="990" y1="0" x2="990" y2="1000"/><line x1="1056" y1="0" x2="1056" y2="1000"/><line x1="1122" y1="0" x2="1122" y2="1000"/><line x1="1188" y1="0" x2="1188" y2="1000"/><line x1="1254" y1="0" x2="1254" y2="1000"/><line x1="1320" y1="0" x2="1320" y2="1000"/><line x1="1386" y1="0" x2="1386" y2="1000"/><line x1="1452" y1="0" x2="1452" y2="1000"/><line x1="1518" y1="0" x2="1518" y2="1000"/><line x1="1584" y1="0" x2="1584" y2="1000"/><line x1="0" y1="0" x2="1600" y2="0"/><line x1="0" y1="66" x2="1600" y2="66"/><line x1="0" y1="132" x2="1600" y2="132"/><line x1="0" y1="198" x2="1600" y2="198"/><line x1="0" y1="264" x2="1600" y2="264"/><line x1="0" y1="330" x2="1600" y2="330"/><line x1="0" y1="396" x2="1600" y2="396"/><line x1="0" y1="462" x2="1600" y2="462"/><line x1="0" y1="528" x2="1600" y2="528"/><line x1="0" y1="594" x2="1600" y2="594"/><line x1="0" y1="660" x2="1600" y2="660"/><line x1="0" y1="726" x2="1600" y2="726"/><line x1="0" y1="792" x2="1600" y2="792"/><line x1="0" y1="858" x2="1600" y2="858"/><line x1="0" y1="924" x2="1600" y2="924"/><line x1="0" y1="990" x2="1600" y2="990"/></g>
<rect width="1600" height="1000" fill="url(#g)"/>
<g stroke="#F5F5F5" stroke-opacity=".25" stroke-width="1.5" font-family="Manrope, Arial" font-size="18" fill="#92969D">
<line x1="470.0" y1="667.0" x2="1130.0" y2="667.0"/><line x1="470.0" y1="656.0" x2="470.0" y2="678.0"/><line x1="1130.0" y1="656.0" x2="1130.0" y2="678.0"/>
<text x="800" y="700.0" text-anchor="middle" stroke="none">AIR · 2–4 kW · 12/24 V</text></g>
<g transform="translate(800 480) scale(1.1)" fill="none" stroke-linecap="round" stroke-linejoin="round">
  <rect x="-300" y="-110" width="600" height="220" rx="60" stroke="#F5F5F5" stroke-opacity=".55" stroke-width="2.5" fill="#121418"/>
  <rect x="-280" y="-90" width="560" height="180" rx="44" stroke="#F5F5F5" stroke-opacity=".12" stroke-width="1.5"/>
  <line x1="-230" y1="-70" x2="-230" y2="70" stroke="#F5F5F5" stroke-opacity=".18" stroke-width="2"/><line x1="-208" y1="-70" x2="-208" y2="70" stroke="#F5F5F5" stroke-opacity=".18" stroke-width="2"/><line x1="-186" y1="-70" x2="-186" y2="70" stroke="#F5F5F5" stroke-opacity=".18" stroke-width="2"/><line x1="-164" y1="-70" x2="-164" y2="70" stroke="#F5F5F5" stroke-opacity=".18" stroke-width="2"/><line x1="-142" y1="-70" x2="-142" y2="70" stroke="#F5F5F5" stroke-opacity=".18" stroke-width="2"/><line x1="-120" y1="-70" x2="-120" y2="70" stroke="#F5F5F5" stroke-opacity=".18" stroke-width="2"/><line x1="-98" y1="-70" x2="-98" y2="70" stroke="#F5F5F5" stroke-opacity=".18" stroke-width="2"/><line x1="-76" y1="-70" x2="-76" y2="70" stroke="#F5F5F5" stroke-opacity=".18" stroke-width="2"/>
  <circle cx="140" cy="0" r="78" stroke="#F5F5F5" stroke-opacity=".5" stroke-width="2.5" fill="#0c0d10"/>
  <circle cx="140" cy="0" r="52" stroke="#FF4B16" stroke-opacity=".9" stroke-width="2.5"/>
  <circle cx="140" cy="0" r="24" fill="#FF4B16" fill-opacity=".85"/>
  <line x1="140" y1="0" x2="210.0" y2="0.0" stroke="#F5F5F5" stroke-opacity=".14" stroke-width="1.5"/><line x1="140" y1="0" x2="200.6" y2="35.0" stroke="#F5F5F5" stroke-opacity=".14" stroke-width="1.5"/><line x1="140" y1="0" x2="175.0" y2="60.6" stroke="#F5F5F5" stroke-opacity=".14" stroke-width="1.5"/><line x1="140" y1="0" x2="140.0" y2="70.0" stroke="#F5F5F5" stroke-opacity=".14" stroke-width="1.5"/><line x1="140" y1="0" x2="105.0" y2="60.6" stroke="#F5F5F5" stroke-opacity=".14" stroke-width="1.5"/><line x1="140" y1="0" x2="79.4" y2="35.0" stroke="#F5F5F5" stroke-opacity=".14" stroke-width="1.5"/><line x1="140" y1="0" x2="70.0" y2="-0.0" stroke="#F5F5F5" stroke-opacity=".14" stroke-width="1.5"/><line x1="140" y1="0" x2="79.4" y2="-35.0" stroke="#F5F5F5" stroke-opacity=".14" stroke-width="1.5"/><line x1="140" y1="0" x2="105.0" y2="-60.6" stroke="#F5F5F5" stroke-opacity=".14" stroke-width="1.5"/><line x1="140" y1="0" x2="140.0" y2="-70.0" stroke="#F5F5F5" stroke-opacity=".14" stroke-width="1.5"/><line x1="140" y1="0" x2="175.0" y2="-60.6" stroke="#F5F5F5" stroke-opacity=".14" stroke-width="1.5"/><line x1="140" y1="0" x2="200.6" y2="-35.0" stroke="#F5F5F5" stroke-opacity=".14" stroke-width="1.5"/>
  <path d="M300 -40 h90 a20 20 0 0 1 20 20 v120" stroke="#F5F5F5" stroke-opacity=".35" stroke-width="10"/>
  <path d="M-300 30 h-120 v140" stroke="#FF4B16" stroke-opacity=".55" stroke-width="3" stroke-dasharray="10 10"/>
  <rect x="-60" y="-150" width="120" height="40" rx="8" stroke="#F5F5F5" stroke-opacity=".3" stroke-width="2" fill="#121418"/>
  <path d="M0 -150 v-60 h220" stroke="#F5F5F5" stroke-opacity=".2" stroke-width="2"/>
</g>
<g font-family="Manrope, Inter, Arial, sans-serif" fill="#F5F5F5">
  <text x="1560" y="960" text-anchor="end" font-size="14" fill-opacity=".28" letter-spacing="3">PLACEHOLDER · ЗАМЕНИТЬ НА service-installation.jpg 1600×1000</text>
</g>
</svg>